# xmcd
#
# Track frame offsets: 
#        150
#        21665
#        40685
#        58465
#        75167
#        91505
#        111645
#        131612
#        151722
#        171362
#        194680
#
# Disc length: 2862 seconds
#
# Revision: 0
# Processed by: cddbd v1.5.2PL0 Copyright (c) Steve Scherf et al.
# Submitted via: ExactAudioCopy v1.3
#
DISCID=8f0b2c0b
DTITLE=梁球 - 情深義斷
DYEAR=1900
DGENRE=Folk
TTITLE0=Who made it wrong
TTITLE1=風中奔馳
TTITLE2=讓我展能
TTITLE3=愛像遊戲
TTITLE4=陽光節拍
TTITLE5=情深義斷卡啦ok
TTITLE6=情深義斷
TTITLE7=思憶
TTITLE8=夢醒淚影
TTITLE9=是否不應愛吧
TTITLE10=思憶卡啦ok
EXTD=
EXTT0=
EXTT1=
EXTT2=
EXTT3=
EXTT4=
EXTT5=
EXTT6=
EXTT7=
EXTT8=
EXTT9=
EXTT10=
PLAYORDER=
